<svg width="173" height="78" viewBox="0 0 173 78" fill="none" xmlns="http://www.w3.org/2000/svg">
<g filter="url(#filter0_d)">
<path d="M20 35C20 24.5066 28.5066 16 39 16H134C144.493 16 153 24.5066 153 35C153 45.4934 144.493 54 134 54H39C28.5066 54 20 45.4934 20 35Z" fill="#FF923D"/>
</g>
<path d="M58.24 28.688C59.3387 28.688 60.2187 28.8533 60.88 29.184C61.5413 29.5147 62.048 29.952 62.4 30.496C62.752 31.04 62.9813 31.6587 63.088 32.352C63.2053 33.0453 63.264 33.7493 63.264 34.464C63.264 35.2427 63.1627 35.9787 62.96 36.672C62.768 37.3653 62.464 37.9733 62.048 38.496C61.6427 39.008 61.12 39.4187 60.48 39.728C59.84 40.0267 59.0773 40.176 58.192 40.176C57.488 40.176 56.9227 40.1227 56.496 40.016C56.08 39.92 55.7547 39.7707 55.52 39.568C55.296 39.3653 55.1467 39.1093 55.072 38.8C54.9973 38.4907 54.96 38.128 54.96 37.712V31.696C54.96 31.2373 54.9973 30.8213 55.072 30.448C55.1573 30.0747 55.3173 29.76 55.552 29.504C55.7867 29.2373 56.1173 29.0347 56.544 28.896C56.9813 28.7573 57.5467 28.688 58.24 28.688ZM58.304 38.576C58.9653 38.576 59.5093 38.4587 59.936 38.224C60.3733 37.9787 60.72 37.6587 60.976 37.264C61.232 36.8693 61.408 36.4213 61.504 35.92C61.6107 35.4187 61.664 34.9067 61.664 34.384C61.664 33.904 61.6267 33.424 61.552 32.944C61.4773 32.4533 61.3227 32.0107 61.088 31.616C60.8533 31.2213 60.5173 30.9013 60.08 30.656C59.6427 30.4107 59.0613 30.288 58.336 30.288C57.6747 30.288 57.216 30.384 56.96 30.576C56.704 30.768 56.576 31.0613 56.576 31.456V37.584C56.576 37.9147 56.6933 38.1653 56.928 38.336C57.1733 38.496 57.632 38.576 58.304 38.576ZM68.5783 31.888C69.1863 31.888 69.7303 31.984 70.2103 32.176C70.6903 32.3573 71.0956 32.6187 71.4263 32.96C71.7676 33.3013 72.0289 33.7173 72.2103 34.208C72.3916 34.6987 72.4823 35.248 72.4823 35.856C72.4823 36.528 72.3756 37.1307 72.1623 37.664C71.9596 38.1973 71.6716 38.6507 71.2983 39.024C70.9356 39.3973 70.4983 39.6853 69.9863 39.888C69.4849 40.0907 68.9356 40.192 68.3383 40.192C67.6876 40.192 67.1116 40.08 66.6103 39.856C66.1196 39.632 65.7036 39.328 65.3623 38.944C65.0316 38.56 64.7809 38.1173 64.6103 37.616C64.4396 37.1147 64.3543 36.5867 64.3543 36.032C64.3543 35.424 64.4503 34.8693 64.6423 34.368C64.8449 33.856 65.1276 33.4187 65.4903 33.056C65.8636 32.6827 66.3116 32.3947 66.8343 32.192C67.3569 31.9893 67.9383 31.888 68.5783 31.888ZM68.4023 38.72C68.8396 38.72 69.2129 38.6453 69.5223 38.496C69.8316 38.336 70.0823 38.128 70.2743 37.872C70.4769 37.616 70.6209 37.328 70.7063 37.008C70.8023 36.6773 70.8503 36.336 70.8503 35.984C70.8503 35.6213 70.8023 35.2853 70.7063 34.976C70.6209 34.656 70.4823 34.3787 70.2903 34.144C70.1089 33.9093 69.8689 33.728 69.5703 33.6C69.2823 33.4613 68.9356 33.392 68.5303 33.392C68.1143 33.392 67.7516 33.4613 67.4423 33.6C67.1329 33.7387 66.8716 33.9307 66.6583 34.176C66.4556 34.4107 66.3009 34.6933 66.1943 35.024C66.0876 35.3547 66.0343 35.712 66.0343 36.096C66.0343 36.8747 66.2316 37.5093 66.6263 38C67.0316 38.48 67.6236 38.72 68.4023 38.72ZM77.6735 33.184C77.2788 33.184 76.9215 33.248 76.6015 33.376C76.2922 33.504 75.9402 33.696 75.5455 33.952C75.5455 34.176 75.5455 34.5067 75.5455 34.944C75.5455 35.3707 75.5402 35.84 75.5295 36.352C75.5188 36.8533 75.5082 37.3493 75.4975 37.84C75.4868 38.3307 75.4655 38.7413 75.4335 39.072C75.4122 39.2853 75.3855 39.456 75.3535 39.584C75.3322 39.7013 75.2948 39.792 75.2415 39.856C75.1988 39.92 75.1348 39.9627 75.0495 39.984C74.9748 39.9947 74.8735 40 74.7455 40C74.6175 40 74.5108 39.9947 74.4255 39.984C74.3508 39.9627 74.2868 39.9253 74.2335 39.872C74.1802 39.808 74.1375 39.7173 74.1055 39.6C74.0735 39.4827 74.0468 39.3227 74.0255 39.12C74.0042 38.928 73.9828 38.672 73.9615 38.352C73.9508 38.032 73.9402 37.6853 73.9295 37.312C73.9188 36.928 73.9082 36.544 73.8975 36.16C73.8975 35.7653 73.8975 35.4027 73.8975 35.072C73.8975 34.528 73.9028 34.0853 73.9135 33.744C73.9348 33.4027 73.9668 33.0987 74.0095 32.832C74.0735 32.384 74.1588 32.1013 74.2655 31.984C74.3722 31.8667 74.5162 31.808 74.6975 31.808C74.9642 31.808 75.1615 31.8827 75.2895 32.032C75.4282 32.1813 75.5135 32.4267 75.5455 32.768C75.9402 32.4267 76.3615 32.1547 76.8095 31.952C77.2682 31.7493 77.7375 31.648 78.2175 31.648C78.6762 31.648 79.0922 31.7547 79.4655 31.968C79.8495 32.1813 80.1642 32.528 80.4095 33.008C80.5588 33.296 80.6708 33.616 80.7455 33.968C80.8202 34.3093 80.8735 34.672 80.9055 35.056C80.9162 35.2267 80.9268 35.3973 80.9375 35.568C80.9482 35.728 80.9535 35.904 80.9535 36.096C80.9642 36.2773 80.9695 36.4853 80.9695 36.72C80.9695 36.9547 80.9695 37.232 80.9695 37.552C80.9695 37.8933 80.9642 38.2133 80.9535 38.512C80.9428 38.8107 80.9108 39.072 80.8575 39.296C80.8148 39.5093 80.7348 39.68 80.6175 39.808C80.5002 39.9253 80.3402 39.984 80.1375 39.984C79.6468 39.984 79.3908 39.7493 79.3695 39.28C79.3695 39.248 79.3695 39.1147 79.3695 38.88C79.3695 38.6347 79.3642 38.352 79.3535 38.032C79.3535 37.712 79.3482 37.3867 79.3375 37.056C79.3375 36.7253 79.3322 36.4533 79.3215 36.24C79.3108 36.0693 79.2948 35.888 79.2735 35.696C79.2628 35.4933 79.2415 35.2907 79.2095 35.088C79.1882 34.8853 79.1562 34.6933 79.1135 34.512C79.0708 34.32 79.0175 34.1493 78.9535 34C78.8042 33.648 78.6175 33.424 78.3935 33.328C78.1695 33.232 77.9295 33.184 77.6735 33.184ZM89.3798 40.064C89.2091 40.064 89.0704 40.0373 88.9638 39.984C88.8678 39.92 88.7931 39.84 88.7398 39.744C88.6864 39.648 88.6491 39.536 88.6278 39.408C88.6064 39.2693 88.5904 39.1253 88.5798 38.976C88.3131 39.3067 87.9664 39.584 87.5398 39.808C87.1238 40.032 86.5904 40.144 85.9398 40.144C85.5238 40.144 85.0971 40.0853 84.6598 39.968C84.2331 39.84 83.8438 39.6267 83.4918 39.328C83.1398 39.0187 82.8518 38.608 82.6278 38.096C82.4038 37.584 82.2918 36.9387 82.2918 36.16C82.2918 35.552 82.3664 34.9813 82.5158 34.448C82.6651 33.9147 82.8891 33.4507 83.1878 33.056C83.4971 32.6507 83.8811 32.3307 84.3398 32.096C84.7984 31.8613 85.3371 31.744 85.9557 31.744C86.4998 31.744 86.9851 31.8453 87.4118 32.048C87.8384 32.24 88.2224 32.56 88.5638 33.008C88.5638 32.88 88.5691 32.752 88.5798 32.624C88.5904 32.4853 88.6171 32.3627 88.6598 32.256C88.7131 32.1387 88.7931 32.048 88.8998 31.984C89.0064 31.9093 89.1504 31.872 89.3318 31.872C89.4918 31.872 89.6411 31.936 89.7798 32.064C89.9184 32.192 89.9984 32.4693 90.0198 32.896C90.0518 33.4613 90.0731 33.968 90.0838 34.416C90.1051 34.864 90.1158 35.328 90.1158 35.808C90.1158 36.3947 90.1104 36.9333 90.0998 37.424C90.0891 37.9147 90.0624 38.4373 90.0198 38.992C89.9984 39.2373 89.9664 39.4347 89.9237 39.584C89.8918 39.7227 89.8491 39.8293 89.7958 39.904C89.7424 39.968 89.6784 40.0107 89.6038 40.032C89.5291 40.0533 89.4544 40.064 89.3798 40.064ZM88.5158 36C88.5158 35.4453 88.4304 34.992 88.2598 34.64C88.0998 34.288 87.8918 34.016 87.6358 33.824C87.3904 33.6213 87.1238 33.4827 86.8358 33.408C86.5478 33.3333 86.2811 33.296 86.0358 33.296C85.6518 33.296 85.3211 33.3653 85.0438 33.504C84.7771 33.6427 84.5584 33.8347 84.3878 34.08C84.2171 34.3147 84.0891 34.5973 84.0038 34.928C83.9291 35.248 83.8918 35.6 83.8918 35.984C83.8918 36.9227 84.0944 37.616 84.4998 38.064C84.9158 38.512 85.4758 38.736 86.1798 38.736C86.5958 38.736 86.9478 38.6667 87.2358 38.528C87.5344 38.3787 87.7744 38.1813 87.9558 37.936C88.1478 37.6907 88.2864 37.4027 88.3718 37.072C88.4678 36.7307 88.5158 36.3733 88.5158 36ZM93.3676 38.96C93.3356 38.288 93.3143 37.4933 93.3036 36.576C93.3036 35.648 93.3036 34.5973 93.3036 33.424C93.197 33.4347 93.069 33.44 92.9196 33.44C92.781 33.44 92.669 33.44 92.5836 33.44C92.3916 33.44 92.2156 33.4347 92.0556 33.424C91.9063 33.4133 91.773 33.3813 91.6556 33.328C91.5383 33.2747 91.4476 33.2 91.3836 33.104C91.3196 32.9973 91.2876 32.8533 91.2876 32.672C91.2876 32.16 91.6716 31.904 92.4396 31.904C92.557 31.904 92.701 31.904 92.8716 31.904C93.0423 31.904 93.1863 31.9147 93.3036 31.936C93.3036 31.3707 93.3143 30.9173 93.3356 30.576C93.357 30.2347 93.3943 29.9733 93.4476 29.792C93.5116 29.6 93.5916 29.4773 93.6876 29.424C93.7943 29.36 93.9276 29.328 94.0876 29.328C94.2583 29.328 94.397 29.3867 94.5036 29.504C94.6103 29.6213 94.6903 29.7707 94.7436 29.952C94.8076 30.1333 94.845 30.336 94.8556 30.56C94.877 30.784 94.8876 31.0027 94.8876 31.216C94.8876 31.3653 94.8823 31.504 94.8716 31.632C94.8716 31.7493 94.8716 31.856 94.8716 31.952C95.021 31.9093 95.1756 31.888 95.3356 31.888C95.4956 31.8773 95.6503 31.872 95.7996 31.872C96.1943 31.872 96.4983 31.936 96.7116 32.064C96.925 32.1813 97.0316 32.3787 97.0316 32.656C97.0316 32.8267 96.9943 32.9653 96.9196 33.072C96.845 33.168 96.7436 33.2427 96.6156 33.296C96.4983 33.3493 96.3543 33.3867 96.1836 33.408C96.0236 33.4187 95.8476 33.424 95.6556 33.424C95.549 33.424 95.4263 33.424 95.2876 33.424C95.149 33.424 95.021 33.4133 94.9036 33.392C94.9036 33.9573 94.9036 34.4747 94.9036 34.944C94.9036 35.4133 94.8983 35.8667 94.8876 36.304C94.877 36.7307 94.8663 37.1573 94.8556 37.584C94.845 38.0107 94.829 38.464 94.8076 38.944C94.797 39.2 94.7703 39.3973 94.7276 39.536C94.6956 39.6747 94.6476 39.7813 94.5836 39.856C94.5196 39.9307 94.445 39.9787 94.3596 40C94.285 40.0107 94.1943 40.016 94.0876 40.016C93.8956 40.016 93.7303 39.952 93.5916 39.824C93.4636 39.6853 93.389 39.3973 93.3676 38.96ZM101.891 37.056C101.517 37.056 101.123 37.0293 100.707 36.976C100.301 36.912 99.8588 36.784 99.3788 36.592C99.4748 37.2427 99.7414 37.7333 100.179 38.064C100.627 38.3947 101.267 38.56 102.099 38.56C102.397 38.56 102.664 38.544 102.899 38.512C103.144 38.4693 103.357 38.4267 103.539 38.384C103.72 38.3307 103.88 38.288 104.019 38.256C104.157 38.2133 104.285 38.192 104.403 38.192C104.552 38.192 104.696 38.24 104.835 38.336C104.973 38.4213 105.043 38.5707 105.043 38.784C105.043 39.0507 104.931 39.2693 104.707 39.44C104.493 39.6107 104.227 39.7493 103.907 39.856C103.597 39.952 103.267 40.016 102.915 40.048C102.563 40.0907 102.253 40.112 101.987 40.112C101.357 40.112 100.776 40.0267 100.243 39.856C99.7201 39.6853 99.2668 39.4293 98.8828 39.088C98.4988 38.736 98.2001 38.304 97.9868 37.792C97.7734 37.28 97.6668 36.6827 97.6668 36C97.6668 35.3387 97.7681 34.752 97.9708 34.24C98.1841 33.728 98.4721 33.296 98.8348 32.944C99.1974 32.592 99.6241 32.3253 100.115 32.144C100.616 31.9627 101.155 31.872 101.731 31.872C102.179 31.872 102.611 31.9307 103.027 32.048C103.453 32.1653 103.827 32.3413 104.147 32.576C104.477 32.8107 104.739 33.1093 104.931 33.472C105.133 33.824 105.235 34.24 105.235 34.72C105.235 35.1467 105.155 35.5093 104.995 35.808C104.835 36.1067 104.605 36.3467 104.307 36.528C104.019 36.7093 103.667 36.8427 103.251 36.928C102.845 37.0133 102.392 37.056 101.891 37.056ZM101.779 33.344C101.491 33.344 101.213 33.3813 100.947 33.456C100.68 33.52 100.435 33.632 100.211 33.792C99.9974 33.9413 99.8161 34.144 99.6668 34.4C99.5174 34.6453 99.4161 34.9547 99.3628 35.328C99.7681 35.5093 100.163 35.6373 100.547 35.712C100.931 35.776 101.336 35.808 101.763 35.808C102.392 35.808 102.856 35.7333 103.155 35.584C103.464 35.424 103.619 35.1413 103.619 34.736C103.619 34.3627 103.475 34.0373 103.187 33.76C102.909 33.4827 102.44 33.344 101.779 33.344ZM111.941 33.184C111.546 33.184 111.189 33.248 110.869 33.376C110.56 33.504 110.208 33.696 109.813 33.952C109.813 34.176 109.813 34.5067 109.813 34.944C109.813 35.3707 109.808 35.84 109.797 36.352C109.786 36.8533 109.776 37.3493 109.765 37.84C109.754 38.3307 109.733 38.7413 109.701 39.072C109.68 39.2853 109.653 39.456 109.621 39.584C109.6 39.7013 109.562 39.792 109.509 39.856C109.466 39.92 109.402 39.9627 109.317 39.984C109.242 39.9947 109.141 40 109.013 40C108.885 40 108.778 39.9947 108.693 39.984C108.618 39.9627 108.554 39.9253 108.501 39.872C108.448 39.808 108.405 39.7173 108.373 39.6C108.341 39.4827 108.314 39.3227 108.293 39.12C108.272 38.928 108.25 38.672 108.229 38.352C108.218 38.032 108.208 37.6853 108.197 37.312C108.186 36.928 108.176 36.544 108.165 36.16C108.165 35.7653 108.165 35.4027 108.165 35.072C108.165 34.528 108.17 34.0853 108.181 33.744C108.202 33.4027 108.234 33.0987 108.277 32.832C108.341 32.384 108.426 32.1013 108.533 31.984C108.64 31.8667 108.784 31.808 108.965 31.808C109.232 31.808 109.429 31.8827 109.557 32.032C109.696 32.1813 109.781 32.4267 109.813 32.768C110.208 32.4267 110.629 32.1547 111.077 31.952C111.536 31.7493 112.005 31.648 112.485 31.648C112.944 31.648 113.36 31.7547 113.733 31.968C114.117 32.1813 114.432 32.528 114.677 33.008C114.826 33.296 114.938 33.616 115.013 33.968C115.088 34.3093 115.141 34.672 115.173 35.056C115.184 35.2267 115.194 35.3973 115.205 35.568C115.216 35.728 115.221 35.904 115.221 36.096C115.232 36.2773 115.237 36.4853 115.237 36.72C115.237 36.9547 115.237 37.232 115.237 37.552C115.237 37.8933 115.232 38.2133 115.221 38.512C115.21 38.8107 115.178 39.072 115.125 39.296C115.082 39.5093 115.002 39.68 114.885 39.808C114.768 39.9253 114.608 39.984 114.405 39.984C113.914 39.984 113.658 39.7493 113.637 39.28C113.637 39.248 113.637 39.1147 113.637 38.88C113.637 38.6347 113.632 38.352 113.621 38.032C113.621 37.712 113.616 37.3867 113.605 37.056C113.605 36.7253 113.6 36.4533 113.589 36.24C113.578 36.0693 113.562 35.888 113.541 35.696C113.53 35.4933 113.509 35.2907 113.477 35.088C113.456 34.8853 113.424 34.6933 113.381 34.512C113.338 34.32 113.285 34.1493 113.221 34C113.072 33.648 112.885 33.424 112.661 33.328C112.437 33.232 112.197 33.184 111.941 33.184ZM120.783 31.888C121.391 31.888 121.935 31.984 122.415 32.176C122.895 32.3573 123.301 32.6187 123.631 32.96C123.973 33.3013 124.234 33.7173 124.415 34.208C124.597 34.6987 124.687 35.248 124.687 35.856C124.687 36.528 124.581 37.1307 124.367 37.664C124.165 38.1973 123.877 38.6507 123.503 39.024C123.141 39.3973 122.703 39.6853 122.191 39.888C121.69 40.0907 121.141 40.192 120.543 40.192C119.893 40.192 119.317 40.08 118.815 39.856C118.325 39.632 117.909 39.328 117.567 38.944C117.237 38.56 116.986 38.1173 116.815 37.616C116.645 37.1147 116.559 36.5867 116.559 36.032C116.559 35.424 116.655 34.8693 116.847 34.368C117.05 33.856 117.333 33.4187 117.695 33.056C118.069 32.6827 118.517 32.3947 119.039 32.192C119.562 31.9893 120.143 31.888 120.783 31.888ZM120.607 38.72C121.045 38.72 121.418 38.6453 121.727 38.496C122.037 38.336 122.287 38.128 122.479 37.872C122.682 37.616 122.826 37.328 122.911 37.008C123.007 36.6773 123.055 36.336 123.055 35.984C123.055 35.6213 123.007 35.2853 122.911 34.976C122.826 34.656 122.687 34.3787 122.495 34.144C122.314 33.9093 122.074 33.728 121.775 33.6C121.487 33.4613 121.141 33.392 120.735 33.392C120.319 33.392 119.957 33.4613 119.647 33.6C119.338 33.7387 119.077 33.9307 118.863 34.176C118.661 34.4107 118.506 34.6933 118.399 35.024C118.293 35.3547 118.239 35.712 118.239 36.096C118.239 36.8747 118.437 37.5093 118.831 38C119.237 38.48 119.829 38.72 120.607 38.72ZM130.007 33.952C130.071 33.8133 130.161 33.712 130.279 33.648C130.407 33.5733 130.545 33.536 130.695 33.536C130.823 33.536 130.945 33.568 131.063 33.632C131.191 33.696 131.292 33.7973 131.367 33.936C131.676 34.512 131.953 35.0987 132.199 35.696C132.455 36.2827 132.727 36.88 133.015 37.488C133.281 36.624 133.516 35.792 133.719 34.992C133.921 34.1813 134.129 33.3867 134.343 32.608C134.417 32.3307 134.519 32.1493 134.647 32.064C134.775 31.968 134.94 31.92 135.143 31.92C135.324 31.92 135.473 31.9733 135.591 32.08C135.708 32.176 135.767 32.3093 135.767 32.48C135.767 32.6187 135.729 32.864 135.655 33.216C135.591 33.5573 135.5 33.9573 135.383 34.416C135.276 34.864 135.153 35.344 135.015 35.856C134.887 36.368 134.753 36.8587 134.615 37.328C134.487 37.7973 134.364 38.224 134.247 38.608C134.129 38.992 134.039 39.28 133.975 39.472C133.889 39.7173 133.788 39.8987 133.671 40.016C133.553 40.144 133.372 40.208 133.127 40.208C132.903 40.208 132.716 40.1227 132.567 39.952C132.417 39.7707 132.279 39.5573 132.151 39.312C132.108 39.2267 132.039 39.0827 131.943 38.88C131.847 38.6773 131.729 38.4373 131.591 38.16C131.463 37.8827 131.319 37.5787 131.159 37.248C131.009 36.9173 130.855 36.5813 130.695 36.24C130.535 36.5813 130.369 36.9173 130.199 37.248C130.039 37.5787 129.889 37.888 129.751 38.176C129.612 38.4533 129.489 38.6933 129.383 38.896C129.287 39.0987 129.217 39.2427 129.175 39.328C129.047 39.5733 128.908 39.7867 128.759 39.968C128.62 40.1387 128.433 40.224 128.199 40.224C127.825 40.224 127.543 39.9787 127.351 39.488C127.276 39.296 127.18 39.0133 127.063 38.64C126.945 38.256 126.823 37.8293 126.695 37.36C126.567 36.8907 126.439 36.4053 126.311 35.904C126.183 35.392 126.065 34.912 125.959 34.464C125.863 34.016 125.783 33.6213 125.719 33.28C125.655 32.9387 125.623 32.6933 125.623 32.544C125.623 32.3627 125.671 32.2133 125.767 32.096C125.873 31.9787 126.023 31.92 126.215 31.92C126.428 31.92 126.599 31.968 126.727 32.064C126.865 32.1493 126.972 32.3307 127.047 32.608C127.26 33.3867 127.468 34.1813 127.671 34.992C127.873 35.792 128.108 36.624 128.375 37.488C128.609 36.976 128.844 36.4427 129.079 35.888C129.313 35.3333 129.623 34.688 130.007 33.952Z" fill="white"/>
<path d="M41.0104 35.1067C41.0104 35.1067 42.2667 35.2533 42.6 33.92C42.8667 32.8533 42.6 32.48 41.88 32.12L40.8 31.76M41.0104 35.1067C41.0104 35.1067 41.677 35.44 42.0104 36.1068C42.2212 36.5284 42.3437 37.4401 41.6771 38.1068C41.0274 38.7564 39.9557 38.7027 39.0104 38.4939M41.0104 35.1067L37.8437 34.2734M34.6771 37.1068L37.6771 38.1068C38.0274 38.2236 38.5005 38.3813 39.0104 38.4939M39.3437 28.7734L36.3437 39.7734M41.3437 29.44L40.8 31.76M40.8 31.76L36.6771 30.4401C34.6771 29.4402 35.0104 26.4955 37.3437 26.1068L39 26C41.7151 26 44.1494 27.2023 45.7995 29.1034C47.1703 30.6828 48 32.7445 48 35C48 39.9706 43.9706 44 39 44C34.0294 44 30 39.9706 30 35C30 33.2962 30.4734 31.7031 31.2959 30.3448L31.8 29.6M39.0104 38.4939L38.677 40.1067" stroke="white" stroke-width="1.5" stroke-linecap="round" stroke-linejoin="round"/>
<defs>
<filter id="filter0_d" x="0" y="0" width="173" height="78" filterUnits="userSpaceOnUse" color-interpolation-filters="sRGB">
<feFlood flood-opacity="0" result="BackgroundImageFix"/>
<feColorMatrix in="SourceAlpha" type="matrix" values="0 0 0 0 0 0 0 0 0 0 0 0 0 0 0 0 0 0 127 0"/>
<feOffset dy="4"/>
<feGaussianBlur stdDeviation="10"/>
<feColorMatrix type="matrix" values="0 0 0 0 0 0 0 0 0 0 0 0 0 0 0 0 0 0 0.1 0"/>
<feBlend mode="normal" in2="BackgroundImageFix" result="effect1_dropShadow"/>
<feBlend mode="normal" in="SourceGraphic" in2="effect1_dropShadow" result="shape"/>
</filter>
</defs>
</svg>
