<svg width="152" height="48" viewBox="0 0 152 48" fill="none" xmlns="http://www.w3.org/2000/svg">
<path d="M0 24C0 10.7452 10.7452 0 24 0H128C141.255 0 152 10.7452 152 24C152 37.2548 141.255 48 128 48H24C10.7452 48 0 37.2548 0 24Z" fill="#4C4471"/>
<path fill-rule="evenodd" clip-rule="evenodd" d="M30 12C33.6203 12 36.867 13.6044 39.0657 16.1376C40.893 18.2429 42 20.9934 42 24C42 30.6274 36.6274 36 30 36C23.3726 36 18 30.6274 18 24C18 21.7299 18.6313 19.6042 19.7285 17.7924C20.0145 17.3199 20.6294 17.1689 21.1018 17.455C21.5743 17.741 21.7253 18.3559 21.4393 18.8283C20.5259 20.3366 20 22.1053 20 24C20 29.5229 24.4772 34 30 34C35.5228 34 40 29.5229 40 24C40 21.4932 39.0789 19.204 37.5553 17.4486C35.7267 15.3418 33.0353 14.0093 30.0314 14.0001C29.3263 13.9979 28.6408 13.9966 28 14.1447C26.3052 14.5365 26.03 16.6818 27.5459 17.5001L28.6233 17.845L29.0385 16.3919C29.1902 15.8609 29.7437 15.5534 30.2747 15.7051C30.8058 15.8569 31.1132 16.4104 30.9615 16.9414L30.529 18.4551L31.5506 18.7821L31.797 18.0073C31.9644 17.481 32.5267 17.19 33.053 17.3574C33.5793 17.5247 33.8703 18.0871 33.703 18.6134L33.4464 19.4202C33.8209 19.5852 34.207 19.8009 34.5477 20.0817C35.2562 20.6659 35.811 21.5859 35.5639 22.8211C35.4212 23.5348 35.1491 24.1047 34.7694 24.5376C34.6417 24.6832 34.5066 24.8079 34.3676 24.9144C34.3819 24.9367 34.3959 24.9592 34.4097 24.982C34.8581 25.7257 34.9222 26.604 34.6154 27.5246C34.4248 28.0961 34.0989 28.5502 33.6626 28.8759C33.2366 29.1938 32.7562 29.352 32.3021 29.4235C31.778 29.5061 31.2318 29.4811 30.7313 29.4155L30.5049 30.2271C30.3564 30.7591 29.8049 31.07 29.2729 30.9215C28.7409 30.7731 28.43 30.2215 28.5785 29.6896L28.7777 28.9754C28.5126 28.8944 28.2751 28.8153 28.079 28.7499L27.6304 28.6004L27.2949 29.7747C27.1431 30.3058 26.5896 30.6133 26.0586 30.4615C25.5276 30.3098 25.2201 29.7563 25.3718 29.2253L25.7312 27.9673L24.4002 27.5236C23.8763 27.349 23.5931 26.7827 23.7678 26.2587C23.9424 25.7348 24.5087 25.4516 25.0327 25.6263L26.2812 26.0424L28.0736 19.769L26.856 19.3792C26.8071 19.3635 26.7595 19.3442 26.7137 19.3212C23.4521 17.6905 23.9502 12.7874 27.8113 12.1441C28.521 12.0259 29.2811 12 30 12ZM29.9793 20.3791L29.3498 22.5825L32.4343 23.485C32.4569 23.4883 32.4959 23.493 32.5461 23.4949C32.6536 23.499 32.7866 23.4896 32.9158 23.4484C33.0368 23.4097 33.1568 23.3431 33.2657 23.2189C33.3759 23.0933 33.5163 22.8611 33.6028 22.4289C33.6699 22.0929 33.569 21.867 33.2753 21.6248C32.9359 21.345 32.4221 21.1375 31.9361 21.0045C31.9223 21.0008 31.9087 20.9967 31.8951 20.9924L29.9793 20.3791ZM31.8689 25.4034L28.8003 24.5056L28.1804 26.6755L28.6993 26.8485C29.1307 26.9923 29.6628 27.1689 30.2283 27.2938C30.883 27.4384 31.5084 27.5238 31.9909 27.4478C32.218 27.4121 32.3675 27.3468 32.4663 27.2731C32.5547 27.2071 32.6483 27.1012 32.718 26.8921C32.8695 26.4377 32.7977 26.1819 32.6969 26.0147C32.5774 25.8164 32.3227 25.5935 31.8689 25.4034Z" fill="white"/>
<path d="M58.5669 16C60.0966 16 61.3219 16.2299 62.2427 16.6898C63.1635 17.1497 63.869 17.758 64.3591 18.5146C64.8492 19.2712 65.1685 20.1317 65.317 21.096C65.4804 22.0603 65.5621 23.0394 65.5621 24.0334C65.5621 25.1164 65.421 26.14 65.1388 27.1043C64.8715 28.0686 64.4482 28.9142 63.869 29.6412C63.3046 30.3533 62.5769 30.9244 61.6858 31.3547C60.7947 31.7701 59.7328 31.9777 58.5001 31.9777C57.5199 31.9777 56.7327 31.9036 56.1386 31.7552C55.5594 31.6217 55.1065 31.414 54.7797 31.1321C54.4678 30.8503 54.2599 30.4942 54.1559 30.064C54.052 29.6338 54 29.1293 54 28.5508V20.1836C54 19.5457 54.052 18.9671 54.1559 18.4478C54.2748 17.9286 54.4975 17.491 54.8243 17.1349C55.151 16.764 55.6114 16.4822 56.2055 16.2893C56.8144 16.0964 57.6015 16 58.5669 16ZM58.656 29.7524C59.5768 29.7524 60.3343 29.5892 60.9283 29.2629C61.5373 28.9217 62.0199 28.4766 62.3764 27.9277C62.7328 27.3788 62.9779 26.7557 63.1115 26.0584C63.26 25.3611 63.3343 24.649 63.3343 23.9221C63.3343 23.2545 63.2823 22.5869 63.1784 21.9193C63.0744 21.2369 62.8591 20.6212 62.5323 20.0723C62.2056 19.5234 61.7377 19.0783 61.1288 18.7371C60.5199 18.3959 59.7105 18.2253 58.7006 18.2253C57.7798 18.2253 57.1411 18.3588 56.7847 18.6259C56.4283 18.8929 56.25 19.3009 56.25 19.8498V28.3727C56.25 28.8326 56.4134 29.1813 56.7401 29.4186C57.0817 29.6412 57.7204 29.7524 58.656 29.7524Z" fill="white"/>
<path d="M72.9614 20.4506C73.8079 20.4506 74.5653 20.5841 75.2337 20.8512C75.902 21.1034 76.4664 21.4669 76.9268 21.9416C77.402 22.4163 77.7659 22.9949 78.0184 23.6773C78.2708 24.3598 78.3971 25.1238 78.3971 25.9694C78.3971 26.904 78.2486 27.7422 77.9515 28.484C77.6694 29.2258 77.2684 29.8563 76.7485 30.3755C76.2436 30.8948 75.6347 31.2953 74.9218 31.5772C74.2238 31.8591 73.4589 32 72.6272 32C71.7212 32 70.9192 31.8442 70.2212 31.5327C69.538 31.2211 68.9588 30.7983 68.4836 30.2643C68.0232 29.7302 67.6741 29.1145 67.4365 28.4172C67.1989 27.72 67.0801 26.9856 67.0801 26.2142C67.0801 25.3686 67.2137 24.5971 67.4811 23.8999C67.7633 23.1878 68.1568 22.5795 68.6618 22.0751C69.1816 21.5559 69.8054 21.1553 70.5331 20.8734C71.2608 20.5916 72.0703 20.4506 72.9614 20.4506ZM72.7163 29.9527C73.3252 29.9527 73.845 29.8489 74.2757 29.6412C74.7064 29.4186 75.0555 29.1293 75.3228 28.7733C75.605 28.4172 75.8055 28.0167 75.9243 27.5716C76.0579 27.1117 76.1248 26.637 76.1248 26.1474C76.1248 25.643 76.0579 25.1757 75.9243 24.7455C75.8055 24.3004 75.6124 23.9147 75.3451 23.5883C75.0926 23.2619 74.7584 23.0097 74.3426 22.8317C73.9416 22.6389 73.4589 22.5424 72.8945 22.5424C72.3153 22.5424 71.8103 22.6389 71.3796 22.8317C70.9489 23.0246 70.5851 23.2916 70.288 23.6328C70.0059 23.9592 69.7905 24.3523 69.642 24.8122C69.4935 25.2721 69.4192 25.7691 69.4192 26.3032C69.4192 27.3862 69.694 28.2689 70.2435 28.9513C70.8079 29.6189 71.6321 29.9527 72.7163 29.9527Z" fill="white"/>
<path d="M85.6251 22.2531C85.0756 22.2531 84.5781 22.3421 84.1325 22.5202C83.7018 22.6982 83.2117 22.9652 82.6622 23.3213C82.6622 23.6328 82.6622 24.0927 82.6622 24.701C82.6622 25.2944 82.6548 25.9471 82.6399 26.6592C82.6251 27.3565 82.6102 28.0464 82.5954 28.7288C82.5805 29.4112 82.5508 29.9824 82.5063 30.4423C82.4766 30.739 82.4394 30.9764 82.3949 31.1544C82.3652 31.3176 82.3132 31.4437 82.2389 31.5327C82.1795 31.6217 82.0904 31.681 81.9716 31.7107C81.8676 31.7255 81.7265 31.733 81.5483 31.733C81.3701 31.733 81.2216 31.7255 81.1028 31.7107C80.9988 31.681 80.9097 31.6291 80.8354 31.5549C80.7612 31.4659 80.7018 31.3398 80.6572 31.1766C80.6127 31.0134 80.5755 30.7909 80.5458 30.509C80.5161 30.242 80.4864 29.886 80.4567 29.4409C80.4419 28.9958 80.427 28.5137 80.4122 27.9944C80.3973 27.4604 80.3825 26.9263 80.3676 26.3922C80.3676 25.8433 80.3676 25.3389 80.3676 24.879C80.3676 24.1224 80.375 23.5067 80.3899 23.032C80.4196 22.5573 80.4641 22.1344 80.5236 21.7636C80.6127 21.1405 80.7315 20.7473 80.88 20.5841C81.0285 20.421 81.229 20.3394 81.4815 20.3394C81.8528 20.3394 82.1275 20.4432 82.3058 20.6509C82.4988 20.8586 82.6176 21.1998 82.6622 21.6745C83.2117 21.1998 83.7984 20.8215 84.4221 20.5396C85.0608 20.2578 85.7142 20.1168 86.3826 20.1168C87.0212 20.1168 87.6004 20.2652 88.1202 20.5619C88.6549 20.8586 89.093 21.3408 89.4346 22.0083C89.6425 22.4089 89.7985 22.854 89.9024 23.3435C90.0064 23.8183 90.0806 24.3227 90.1252 24.8567C90.14 25.0941 90.1549 25.3315 90.1697 25.5688C90.1846 25.7914 90.192 26.0362 90.192 26.3032C90.2069 26.5554 90.2143 26.8447 90.2143 27.1711C90.2143 27.4975 90.2143 27.8832 90.2143 28.3282C90.2143 28.803 90.2069 29.248 90.192 29.6634C90.1772 30.0788 90.1326 30.4423 90.0584 30.7538C89.999 31.0505 89.8876 31.2879 89.7242 31.4659C89.5608 31.6291 89.3381 31.7107 89.0559 31.7107C88.3727 31.7107 88.0163 31.3843 87.9865 30.7316C87.9865 30.6871 87.9865 30.5016 87.9865 30.1752C87.9865 29.834 87.9791 29.4409 87.9643 28.9958C87.9643 28.5508 87.9568 28.0983 87.942 27.6384C87.942 27.1785 87.9346 26.8002 87.9197 26.5035C87.9049 26.2661 87.8826 26.0139 87.8529 25.7469C87.838 25.465 87.8083 25.1831 87.7638 24.9013C87.7341 24.6194 87.6895 24.3523 87.6301 24.1001C87.5707 23.8331 87.4964 23.5957 87.4073 23.388C87.1994 22.8985 86.9395 22.5869 86.6276 22.4534C86.3157 22.3199 85.9816 22.2531 85.6251 22.2531Z" fill="white"/>
<path d="M101.924 31.822C101.687 31.822 101.494 31.7849 101.345 31.7107C101.211 31.6217 101.107 31.5104 101.033 31.3769C100.959 31.2434 100.907 31.0876 100.877 30.9096C100.848 30.7167 100.825 30.5165 100.81 30.3088C100.439 30.7687 99.9565 31.1544 99.3624 31.4659C98.7832 31.7775 98.0406 31.9332 97.1346 31.9332C96.5554 31.9332 95.9613 31.8516 95.3524 31.6885C94.7584 31.5104 94.2163 31.2137 93.7262 30.7983C93.236 30.3681 92.835 29.7969 92.5232 29.0848C92.2113 28.3727 92.0553 27.4752 92.0553 26.3922C92.0553 25.5466 92.1593 24.7529 92.3672 24.0111C92.5751 23.2694 92.887 22.624 93.3029 22.0751C93.7336 21.5114 94.2682 21.0663 94.9069 20.7399C95.5455 20.4135 96.2955 20.2503 97.1569 20.2503C97.9143 20.2503 98.5901 20.3913 99.1842 20.6732C99.7782 20.9402 100.313 21.3853 100.788 22.0083C100.788 21.8303 100.796 21.6523 100.81 21.4743C100.825 21.2814 100.862 21.1108 100.922 20.9624C100.996 20.7993 101.107 20.6732 101.256 20.5841C101.404 20.4803 101.605 20.4284 101.857 20.4284C102.08 20.4284 102.288 20.5174 102.481 20.6954C102.674 20.8734 102.786 21.2592 102.815 21.8526C102.86 22.6388 102.89 23.3435 102.905 23.9666C102.934 24.5897 102.949 25.235 102.949 25.9026C102.949 26.7186 102.942 27.4678 102.927 28.1502C102.912 28.8326 102.875 29.5596 102.815 30.331C102.786 30.6722 102.741 30.9467 102.682 31.1544C102.637 31.3472 102.578 31.4956 102.504 31.5994C102.429 31.6885 102.34 31.7478 102.236 31.7775C102.132 31.8071 102.028 31.822 101.924 31.822ZM100.721 26.1697C100.721 25.3982 100.603 24.7677 100.365 24.2782C100.142 23.7886 99.8525 23.4103 99.496 23.1433C99.1545 22.8614 98.7832 22.6685 98.3822 22.5647C97.9812 22.4608 97.6099 22.4089 97.2683 22.4089C96.7336 22.4089 96.2732 22.5053 95.8871 22.6982C95.5158 22.8911 95.2113 23.1581 94.9737 23.4993C94.7361 23.8257 94.5579 24.2188 94.439 24.6787C94.3351 25.1238 94.2831 25.6134 94.2831 26.1474C94.2831 27.4529 94.5653 28.4172 95.1296 29.0403C95.7089 29.6634 96.4886 29.975 97.4688 29.975C98.048 29.975 98.5381 29.8785 98.9391 29.6857C99.355 29.478 99.6891 29.2035 99.9416 28.8623C100.209 28.5211 100.402 28.1205 100.521 27.6606C100.654 27.1859 100.721 26.6889 100.721 26.1697Z" fill="white"/>
<path d="M107.477 30.2865C107.432 29.3519 107.403 28.2466 107.388 26.9708C107.388 25.6801 107.388 24.2188 107.388 22.5869C107.239 22.6018 107.061 22.6092 106.853 22.6092C106.66 22.6092 106.504 22.6092 106.385 22.6092C106.118 22.6092 105.873 22.6018 105.65 22.5869C105.442 22.5721 105.256 22.5276 105.093 22.4534C104.93 22.3792 104.804 22.2754 104.714 22.1419C104.625 21.9935 104.581 21.7932 104.581 21.541C104.581 20.8289 105.115 20.4729 106.185 20.4729C106.348 20.4729 106.549 20.4729 106.786 20.4729C107.024 20.4729 107.224 20.4877 107.388 20.5174C107.388 19.7311 107.403 19.1006 107.432 18.6259C107.462 18.1511 107.514 17.7877 107.588 17.5355C107.677 17.2684 107.789 17.0978 107.922 17.0236C108.071 16.9346 108.257 16.8901 108.479 16.8901C108.717 16.8901 108.91 16.9717 109.059 17.1349C109.207 17.2981 109.318 17.5058 109.393 17.758C109.482 18.0102 109.534 18.2921 109.549 18.6036C109.578 18.9152 109.593 19.2193 109.593 19.516C109.593 19.7237 109.586 19.9166 109.571 20.0946C109.571 20.2578 109.571 20.4061 109.571 20.5396C109.779 20.4803 109.994 20.4506 110.217 20.4506C110.44 20.4358 110.655 20.4284 110.863 20.4284C111.413 20.4284 111.836 20.5174 112.133 20.6954C112.43 20.8586 112.578 21.1331 112.578 21.5188C112.578 21.7561 112.526 21.949 112.422 22.0974C112.318 22.2309 112.177 22.3347 111.999 22.4089C111.836 22.4831 111.635 22.535 111.398 22.5647C111.175 22.5795 110.93 22.5869 110.663 22.5869C110.514 22.5869 110.343 22.5869 110.15 22.5869C109.957 22.5869 109.779 22.5721 109.615 22.5424C109.615 23.3287 109.615 24.0482 109.615 24.701C109.615 25.3537 109.608 25.9842 109.593 26.5925C109.578 27.1859 109.563 27.7793 109.549 28.3727C109.534 28.9662 109.512 29.5967 109.482 30.2643C109.467 30.6203 109.43 30.8948 109.37 31.0876C109.326 31.2805 109.259 31.4288 109.17 31.5327C109.081 31.6365 108.977 31.7033 108.858 31.733C108.754 31.7478 108.628 31.7552 108.479 31.7552C108.212 31.7552 107.982 31.6662 107.789 31.4882C107.61 31.2953 107.507 30.8948 107.477 30.2865Z" fill="white"/>
<path d="M119.344 27.6384C118.824 27.6384 118.275 27.6013 117.695 27.5271C117.131 27.4381 116.515 27.2601 115.846 26.993C115.98 27.898 116.351 28.5804 116.96 29.0403C117.584 29.5002 118.475 29.7302 119.634 29.7302C120.049 29.7302 120.421 29.7079 120.747 29.6634C121.089 29.6041 121.386 29.5447 121.639 29.4854C121.891 29.4112 122.114 29.3519 122.307 29.3074C122.5 29.248 122.678 29.2184 122.842 29.2184C123.049 29.2184 123.25 29.2851 123.443 29.4186C123.636 29.5373 123.733 29.745 123.733 30.0417C123.733 30.4126 123.577 30.7167 123.265 30.9541C122.968 31.1915 122.597 31.3843 122.151 31.5327C121.72 31.6662 121.26 31.7552 120.77 31.7997C120.28 31.8591 119.849 31.8887 119.478 31.8887C118.601 31.8887 117.792 31.7701 117.049 31.5327C116.322 31.2953 115.69 30.9393 115.156 30.4645C114.621 29.975 114.205 29.3741 113.908 28.662C113.611 27.9499 113.463 27.1191 113.463 26.1697C113.463 25.2499 113.604 24.4339 113.886 23.7218C114.183 23.0097 114.584 22.4089 115.089 21.9193C115.594 21.4298 116.188 21.0589 116.871 20.8067C117.569 20.5545 118.319 20.4284 119.121 20.4284C119.745 20.4284 120.346 20.51 120.926 20.6732C121.52 20.8363 122.04 21.0811 122.485 21.4075C122.946 21.7339 123.309 22.1493 123.577 22.6537C123.859 23.1433 124 23.7218 124 24.3894C124 24.9828 123.889 25.4872 123.666 25.9026C123.443 26.318 123.124 26.6518 122.708 26.904C122.307 27.1562 121.817 27.3417 121.238 27.4604C120.673 27.579 120.042 27.6384 119.344 27.6384ZM119.188 22.4757C118.787 22.4757 118.401 22.5276 118.03 22.6314C117.658 22.7204 117.317 22.8762 117.005 23.0987C116.708 23.3064 116.455 23.5883 116.247 23.9444C116.039 24.2856 115.898 24.7158 115.824 25.235C116.388 25.4873 116.938 25.6653 117.473 25.7691C118.007 25.8581 118.572 25.9026 119.166 25.9026C120.042 25.9026 120.688 25.7988 121.104 25.5911C121.535 25.3686 121.75 24.9754 121.75 24.4117C121.75 23.8924 121.549 23.44 121.148 23.0542C120.762 22.6685 120.109 22.4757 119.188 22.4757Z" fill="white"/>
</svg>
