<svg width="32" height="32" viewBox="0 0 32 32" fill="none" xmlns="http://www.w3.org/2000/svg">
<path fill-rule="evenodd" clip-rule="evenodd" d="M25.5983 6.34247L31.2169 4.03873C31.5036 3.93351 31.8344 4.05005 31.9555 4.29904C31.9849 4.35933 32 4.42412 32 4.48957V27.5106C32 27.7809 31.7476 28 31.4363 28C31.3509 28 31.2666 27.9832 31.1898 27.9507L25.5551 25.1668C25.2156 25.0234 25 24.7244 25 24.3965V7.36C25 7.01579 25.2332 6.47646 25.5983 6.34247ZM7 7.36V24.2375C7 24.7213 6.73879 25.0956 6.31276 25.2692L0.808807 27.9508C0.732135 27.9832 0.647995 28 0.562741 28C0.251948 28 0 27.7364 0 27.4081V4.62692C0 4.12672 0.399451 3.92168 0.68573 4.02679C0.972009 4.1319 6.31276 6.37878 6.31276 6.37878C6.76215 6.54396 7 6.8488 7 7.36ZM16.3669 8.90889L21.5305 11.8427C21.7832 11.9866 22 12.2459 22 12.5701V18.4733C22 18.7595 21.8525 19.0242 21.5998 19.1681L16.4419 22.1311C16.1869 22.2763 15.8719 22.2763 15.6169 22.1311L10.4082 19.1681C10.1555 19.0242 10 18.7595 10 18.4733V12.5715C10 12.2852 10.1599 11.9866 10.4126 11.8427L15.597 8.90889C15.852 8.7637 16.1119 8.7637 16.3669 8.90889Z" fill="url(#paint0_linear)"/>
<defs>
<linearGradient id="paint0_linear" x1="16" y1="4" x2="16" y2="28" gradientUnits="userSpaceOnUse">
<stop stop-color="#19C0FC"/>
<stop offset="1" stop-color="#386BE8"/>
</linearGradient>
</defs>
</svg>
